<svg width="33" height="33" viewBox="0 0 33 33" fill="none" xmlns="http://www.w3.org/2000/svg">
<g clip-path="url(#clip0_2_1078)">
<path d="M17.3516 0H15.8081L14.5839 0.109091L12.9871 0.381818L11.3903 0.818182L10.5387 1.14545L10.379 1.36364L10.4323 1.74545L10.4855 2.29091L10.0597 2.56364L8.62258 3.27273L7.39839 3.98182L6.65322 4.41818H6.33387L5.53548 3.87273H5.21613L4.68387 4.30909L3.61935 5.4L3.14032 6L2.44839 6.92727L1.8629 7.85455L1.33064 8.83636L0.904839 9.70909L0.479031 10.7455L0.159676 11.7273L0 12.3273V12.7636L0.266129 13.0364L0.904839 13.3636L0.958065 13.5273V13.9636L0.851612 14.8364L0.798386 15.6545V16.8545L0.904839 18.2182L0.958065 18.8727L0.745159 19.1455L0.159676 19.4727L0 19.6364V20.1273L0.425804 21.5455L0.958065 22.8545L1.38387 23.7273L2.02258 24.8727L2.71452 25.9091L3.35323 26.7818L4.04516 27.6L5.1629 28.7455L5.48226 28.9636H5.85484L6.28065 28.5818L6.54677 28.2545L6.75968 28.1455L7.07903 28.2L8.56936 29.1273L9.52742 29.6727L10.4323 30.1091L10.6452 30.3818V30.7636L10.4855 31.3091V31.6909L10.7516 31.9636L12.1887 32.4545L13.5726 32.7818L14.7435 32.9455L15.2758 33H17.6177L19.0016 32.8364L20.7048 32.4545L22.1419 31.9636L22.4081 31.8L22.4613 31.6909V31.3091L22.3548 30.9273V30.3818L22.621 30.1091L23.8984 29.4545L24.9097 28.8545L25.921 28.2L26.2403 28.1455L26.5065 28.3091L27.0387 28.9091L27.1452 28.9636H27.5177L28.05 28.5273L29.0081 27.5455L29.3806 27.1091L30.0194 26.2909L30.7113 25.2545L31.4032 24.1091L32.0419 22.8545L32.5742 21.4909L32.8935 20.5091L33 20.0727V19.6364L32.7339 19.3636L32.2016 19.0909L32.0419 18.8727L32.0952 18.2727L32.2016 17.2364V15.3273L32.0419 13.8545L32.0952 13.4727L32.3081 13.2545L32.8403 12.9818L33 12.8182V12.2727L32.6806 11.1818L32.3613 10.3091L31.8823 9.21818L31.2968 8.07273L30.6048 6.98182L30.179 6.38182L29.7532 5.83636L29.1145 5.07273L28.1565 4.09091L27.8371 3.87273H27.4645L26.7726 4.41818H26.2935L25.229 3.76364L23.6855 2.94545L22.6742 2.4L22.5677 2.29091V1.85455L22.621 1.30909L22.3548 1.09091L20.9177 0.6L19.4806 0.272727L18.4694 0.109091L17.3516 0Z" fill="#00CC34" fill-opacity="0.7"/>
<path d="M16.6065 12.5455L15.8081 12.6L15.0629 12.8182L14.2645 13.2545L13.6258 13.8545L13.2532 14.3455L12.8807 15.1091L12.721 15.6545L12.6678 16.0909V16.7455L12.8274 17.6182L13.0403 18.1636L13.4661 18.8182L13.892 19.3091L14.4774 19.7455L15.2226 20.1273L15.9145 20.2909H17.0855L17.9371 20.0727L18.6823 19.6909L19.321 19.0909L19.6936 18.6545L20.1194 17.7818L20.279 17.1818L20.3323 16.8V16.0909L20.1194 15.1091L19.7468 14.3455L19.2678 13.7455L18.7355 13.2545L18.0968 12.8727L17.192 12.6L16.6065 12.5455Z" fill="#00CC34" fill-opacity="0.7"/>
<path d="M16.9258 2.34546H16.1274L15.2758 2.56364L14.5306 2.94546L13.8919 3.54546L13.5193 4.09091L13.2532 4.69091L13.0935 5.34546V6.21819L13.3064 7.09091L13.679 7.8L14.2645 8.45455L14.7968 8.83637L15.3822 9.1091L16.0742 9.27273H17.0322L17.6709 9.1091L18.5226 8.67273L19.0548 8.18182L19.5339 7.47273L19.8 6.81819L19.9064 6.32728V5.18182L19.6935 4.41819L19.3209 3.76364L18.8419 3.21819L18.15 2.72728L17.458 2.45455L16.9258 2.34546Z" fill="#090909"/>
<path d="M25.6549 7.52727H24.75L23.8984 7.74545L23.2065 8.12727L22.5678 8.72727L22.1952 9.27272L21.9291 9.87272L21.7694 10.6909V11.3454L21.9823 12.2182L22.3549 12.9818L22.9403 13.6364L23.5791 14.0727L24.3242 14.3454L24.5903 14.4H25.7081L26.5065 14.1818L27.092 13.8545L27.6242 13.3636L27.9968 12.9273L28.3161 12.2727L28.5291 11.4545V10.4727L28.3694 9.81818L28.1565 9.32727L27.7839 8.72727L27.3049 8.23636L26.7194 7.85454L25.9742 7.58181L25.6549 7.52727Z" fill="#090909"/>
<path d="M16.9258 23.2364H16.0742L15.2758 23.4545L14.6371 23.7818L13.9984 24.3818L13.6258 24.8727L13.3064 25.5273L13.1468 26.0727L13.0935 26.4545V27L13.2532 27.8182L13.6258 28.5818L14.0516 29.1273L14.4774 29.5091L15.0097 29.8364L15.808 30.1091L16.1274 30.1636H16.8726L17.6177 30L18.4693 29.5636L19.108 28.9636L19.5871 28.2L19.8 27.5454L19.8532 27.2182V26.1818L19.6403 25.3636L19.2677 24.7091L18.7887 24.1636L18.2564 23.7273L17.6177 23.4L16.9258 23.2364Z" fill="#090909"/>
<path d="M8.30323 7.52727H7.29194L6.44033 7.79999L5.90807 8.12727L5.37581 8.61818L5.00323 9.05454L4.63065 9.81818L4.47097 10.5273V11.3454L4.68388 12.2182L5.00323 12.8727L5.48226 13.4727L6.12097 13.9636L6.70646 14.2364L7.34517 14.4H8.46291L9.10162 14.2364L9.84678 13.8545L10.4855 13.2545L10.9113 12.5454L11.1242 12L11.2307 11.4545V10.6364L11.071 9.87272L10.6452 8.99999L10.0597 8.34545L9.63388 8.01818L8.94194 7.6909L8.30323 7.52727Z" fill="#090909"/>
<path d="M25.2823 17.8909L24.5371 17.9455L23.8452 18.1636L23.1532 18.5455L22.6742 18.9818L22.2484 19.5818L21.9823 20.1273L21.8226 20.6727L21.7694 21.1091V21.6546L21.9291 22.4182L22.1952 23.0727L22.6742 23.7273L23.1532 24.1636L23.792 24.5455L24.5903 24.7636H25.8145L26.5597 24.5455L27.1984 24.1636L27.6774 23.7273L28.1565 23.0182L28.4226 22.3636L28.5291 21.8182V20.7818L28.3694 20.1273L27.9968 19.3636L27.4113 18.7091L26.6661 18.2182L26.0807 18L25.2823 17.8909Z" fill="#090909"/>
<path d="M8.46291 17.9454H7.23872L6.3871 18.2182L5.64194 18.7091L5.21614 19.1454L4.79033 19.8L4.57743 20.3454L4.47097 20.8909V21.7091L4.68388 22.5818L5.00323 23.2364L5.42904 23.7818L6.01452 24.2727L6.81291 24.6545L7.71775 24.8182L8.56936 24.7636L9.2613 24.5454L9.84678 24.2182L10.379 23.7273L10.7516 23.2364L11.071 22.5273L11.2307 21.8727V20.8909L11.0177 20.0727L10.7516 19.5273L10.3258 18.9818L9.79356 18.4909L8.94194 18.0545L8.46291 17.9454Z" fill="#090909"/>
<path d="M17.1919 1.74545H15.8081L14.9565 2.01818L14.3177 2.34545L13.8387 2.72727L13.3065 3.27273L12.9339 3.87273L12.6677 4.47273L12.5081 5.12727L12.4548 5.89091L12.5613 6.70909L12.8274 7.52727L13.2 8.18182L13.679 8.72727L14.1581 9.16363L14.9032 9.6L15.5419 9.81818L16.1807 9.92727H16.8194L17.671 9.76363L18.3629 9.49091L18.9484 9.10909L19.4806 8.61818L19.9065 8.07273L20.3323 7.2L20.4919 6.6L20.5452 6.21818V5.18182L20.3855 4.47273L19.9597 3.6L19.5871 3.10909L19.0548 2.56363L18.3629 2.12727L17.671 1.85454L17.1919 1.74545ZM16.9258 2.34545L17.7774 2.56363L18.4161 2.89091L18.9484 3.32727L19.3742 3.81818L19.7468 4.58182L19.9065 5.18182V6.32727L19.6936 7.14545L19.3742 7.74545L18.8952 8.34545L18.3629 8.78182L17.671 9.10909L17.0323 9.27273H16.0742L15.2226 9.05454L14.4774 8.61818L13.8387 8.01818L13.4661 7.41818L13.2 6.76363L13.0936 6.21818V5.34545L13.3065 4.52727L13.679 3.81818L14.2645 3.16363L14.7968 2.78182L15.4355 2.50909L16.1274 2.34545H16.9258Z" fill="#090909"/>
<path d="M8.35642 17.2909H7.2919L6.49352 17.5091L5.6419 17.9455L5.16287 18.3273L4.68384 18.8182L4.31126 19.4182L4.04513 20.0182L3.88545 20.6727V21.9818L4.09836 22.8L4.47094 23.5636L4.89674 24.1091L5.32255 24.5455L5.90803 24.9273L6.49352 25.2L7.2919 25.4182H8.46287L9.36771 25.2L10.1661 24.7636L10.8048 24.1636L11.1242 23.7818L11.55 23.0182L11.7629 22.3636L11.8693 21.2182L11.7629 20.3455L11.4967 19.5818L11.0177 18.8182L10.5919 18.3273L10.0064 17.8909L9.26126 17.5091L8.729 17.3455L8.35642 17.2909ZM8.46287 17.9455L9.04836 18.1091L9.79352 18.4909L10.4322 19.0909L10.8048 19.6364L11.0177 20.0727L11.2306 20.8909V21.8727L11.0177 22.6909L10.6451 23.4L10.1661 23.9455L9.68707 24.3273L8.99513 24.6545L8.56932 24.7636L7.71771 24.8182L6.81287 24.6545L5.96126 24.2182L5.429 23.7818L5.00319 23.2364L4.68384 22.5818L4.47094 21.7091V20.8909L4.63061 20.2364L4.84352 19.7455L5.2161 19.1455L5.69513 18.6545L6.38707 18.2182L7.23868 17.9455H8.46287Z" fill="#090909"/>
<path d="M25.7613 17.2909H24.5903L23.7387 17.5091L23.1 17.8364L22.408 18.3818L21.929 18.9273L21.6097 19.4182L21.2903 20.2364L21.1839 20.7818V21.9273L21.3968 22.7455L21.6097 23.2364L21.929 23.7818L22.5145 24.4364L23.1 24.8727L23.8984 25.2545L24.5903 25.4182H25.708L26.5597 25.2L27.4113 24.7636L27.9968 24.2727L28.3693 23.8364L28.7951 23.1273L29.0613 22.3636L29.1677 21.6545V21L29.008 20.1273L28.7419 19.4182L28.3693 18.8727L27.8903 18.3273L27.358 17.8909L26.6129 17.5091L25.7613 17.2909ZM25.2822 17.8909L26.0806 18L26.7726 18.2727L27.4645 18.7636L27.8371 19.1455L28.2629 19.8545L28.4758 20.5091L28.529 20.7818V21.8182L28.3693 22.5273L27.9968 23.2909L27.5177 23.8909L26.879 24.3818L26.2403 24.6545L25.8145 24.7636H24.5903L23.7919 24.5455L23.1532 24.1636L22.5677 23.6182L22.0887 22.8545L21.8758 22.2545L21.7693 21.6545V21.1091L21.8758 20.4545L22.1419 19.8L22.4613 19.2545L22.8871 18.7636L23.4193 18.3818L24.1113 18.0545L24.5371 17.9455L25.2822 17.8909Z" fill="#090909"/>
<path d="M8.14352 6.87273H7.50481L6.6532 7.03636L5.90804 7.36364L5.32255 7.8L4.84352 8.23636L4.41771 8.83636L4.09836 9.49091L3.88546 10.3091L3.83223 10.9636L3.93868 11.8909L4.20481 12.7091L4.63062 13.4182L5.10965 13.9636L5.64191 14.4L6.49352 14.8364L7.13223 15L7.61126 15.0545H8.19675L8.88868 14.9455L9.58062 14.7273L10.379 14.2364L10.9645 13.6364L11.4435 12.8727L11.7096 12.1636L11.8161 11.6182V10.3091L11.55 9.38182L11.1242 8.61818L10.6451 8.07273L10.1129 7.58182L9.31449 7.14545L8.56933 6.92727L8.14352 6.87273ZM8.3032 7.52727L8.94191 7.69091L9.79352 8.12727L10.3258 8.61818L10.7516 9.16364L11.0709 9.87273L11.2306 10.6364V11.4545L11.0177 12.3273L10.5919 13.0909L10.1129 13.6364L9.58062 14.0182L8.94191 14.2909L8.46288 14.4H7.34513L6.54675 14.1818L5.96126 13.8545L5.37578 13.3636L4.89675 12.7091L4.63062 12.0545L4.47094 11.3455V10.5273L4.63062 9.81818L5.0032 9.05454L5.58868 8.4L6.06771 8.01818L6.70642 7.69091L7.29191 7.52727H8.3032Z" fill="#090909"/>
<path d="M25.4951 6.87273H24.9097L24.0048 7.03636L23.1532 7.41818L22.5145 7.90909L22.0355 8.4L21.5564 9.16364L21.2903 9.87273L21.1839 10.4182V11.5636L21.3968 12.4364L21.7693 13.2L22.1419 13.6909L22.621 14.1818L23.3129 14.6182L23.9516 14.8909L24.4306 15L24.9629 15.0545H25.4419L26.1871 14.9455L27.0387 14.6182L27.6774 14.1818L28.05 13.8545L28.4758 13.3091L28.7951 12.7636L29.0613 11.9455L29.1677 11.1818V10.6909L29.008 9.76364L28.7419 9.10909L28.4226 8.56364L27.9435 8.01818L27.4645 7.58182L26.6661 7.14545L25.921 6.92727L25.4951 6.87273ZM25.6548 7.52727L26.2935 7.69091L26.7726 7.90909L27.358 8.29091L27.7839 8.72727L28.2097 9.38182L28.4758 10.1455L28.529 10.4727V11.4545L28.3161 12.2727L27.9968 12.9273L27.5177 13.4727L27.0919 13.8545L26.3468 14.2364L25.708 14.4H24.5903L23.8451 14.1818L23.3129 13.9091L22.7806 13.4727L22.3548 12.9818L21.929 12.1091L21.7693 11.3455V10.6909L21.929 9.87273L22.3548 9L22.9935 8.29091L23.579 7.90909L24.2177 7.63636L24.75 7.52727H25.6548Z" fill="#090909"/>
<path d="M16.5532 22.5818L15.5952 22.6909L14.85 22.9636L14.2113 23.3455L13.679 23.8364L13.2 24.3818L12.8274 25.0364L12.5613 25.9091L12.5081 26.2364V27.2727L12.721 28.1455L13.0936 28.9091L13.5194 29.4545L13.8919 29.8364L14.4242 30.2182L15.0629 30.5455L15.9145 30.7636H17.0855L17.9371 30.5455L18.6823 30.1636L19.2145 29.7273L19.5871 29.3455L20.0661 28.5818L20.3323 27.9273L20.4387 27.4364L20.4919 26.9455V26.4L20.3855 25.6909L20.0661 24.8182L19.5871 24.1091L18.8952 23.4L18.15 22.9636L17.6177 22.7455L17.1387 22.6364L16.5532 22.5818ZM16.9258 23.2364L17.6177 23.4L18.3629 23.7818L19.0548 24.4364L19.3742 24.8727L19.6936 25.5273L19.8532 26.1818V27.2182L19.6936 27.8727L19.4807 28.4182L19.0548 29.0182L18.6823 29.4L18.0968 29.7818L17.4581 30.0545L16.8726 30.1636H16.1274L15.2758 29.9455L14.6371 29.6182L14.1048 29.1818L13.7323 28.7455L13.4129 28.2L13.2 27.6L13.0936 27V26.4545L13.2532 25.6909L13.5194 25.0364L13.9452 24.4364L14.4242 23.9455L15.0097 23.5636L15.5952 23.3455L16.0742 23.2364H16.9258Z" fill="#090909"/>
<path d="M16.6065 12.5455L15.8081 12.6L15.0629 12.8182L14.2645 13.2545L13.6258 13.8545L13.2532 14.3455L12.8807 15.1091L12.721 15.6545L12.6678 16.0909V16.7455L12.8274 17.6182L13.0403 18.1636L13.4661 18.8182L13.892 19.3091L14.4774 19.7455L15.2226 20.1273L15.9145 20.2909H17.0855L17.9371 20.0727L18.6823 19.6909L19.321 19.0909L19.6936 18.6545L20.1194 17.7818L20.279 17.1818L20.3323 16.8V16.0909L20.1194 15.1091L19.7468 14.3455L19.2678 13.7455L18.7355 13.2545L18.0968 12.8727L17.192 12.6L16.6065 12.5455ZM16.9258 13.2L17.6178 13.3636L18.2565 13.6909L18.7887 14.1273L19.2145 14.6727L19.5339 15.3273L19.6936 15.9273V16.9636L19.5339 17.6182L19.1613 18.3273L18.6823 18.8727L18.0968 19.3091L17.4581 19.5818L16.8726 19.6909H16.2339L15.4355 19.5273L14.6903 19.1455L14.0516 18.5455L13.7323 18.1091L13.4661 17.5636L13.3065 16.9091V15.9273L13.4661 15.3273L13.8387 14.5636L14.4242 13.9091L15.0097 13.5273L15.7549 13.2545L16.0742 13.2H16.9258Z" fill="#090909"/>
<path d="M16.7662 14.7818L16.0742 14.8364L16.021 14.8909V16.0364L15.7016 15.9818H14.9565L14.85 16.2V16.7455L14.9565 16.9091H16.021V17.8364L16.1274 18.1091H16.9258L16.9791 18.0545V16.9636L18.0968 16.9091L18.15 16.8V16.0909L18.0436 15.9818H16.9791V15.2182L16.9258 14.8364L16.7662 14.7818Z" fill="#090909"/>
</g>
<defs>
<clipPath id="clip0_2_1078">
<rect width="33" height="33" fill="white" transform="matrix(-1 0 0 1 33 0)"/>
</clipPath>
</defs>
</svg>
